<?xml version="1.0" encoding="UTF-8"?>
<svg version="1.1" xmlns="http://www.w3.org/2000/svg" width="1024" height="640">
<path d="M0 0 C0.99636475 -0.00571014 1.99272949 -0.01142029 3.01928711 -0.01730347 C4.67334816 -0.01898026 4.67334816 -0.01898026 6.36082458 -0.02069092 C8.09276566 -0.02813828 8.09276566 -0.02813828 9.85969543 -0.03573608 C13.70569953 -0.05041798 17.55166222 -0.05717373 21.39768982 -0.06268311 C23.39517136 -0.06698098 25.39265291 -0.07127938 27.39013427 -0.07565761 C32.96919445 -0.08748955 38.54824461 -0.09501159 44.12731606 -0.09845281 C51.31072396 -0.10290855 58.4939392 -0.12033002 65.67728859 -0.1494534 C71.24354635 -0.17122466 76.80975062 -0.18116559 82.37605041 -0.18249393 C85.69210583 -0.18353304 89.00794188 -0.19073422 92.32396126 -0.20731354 C125.95414629 -0.36329331 125.95414629 -0.36329331 141.20628357 6.32794189 C141.91075623 6.62909912 142.61522888 6.93025635 143.34104919 7.24053955 C159.83490921 14.58581527 172.19864004 27.68804574 179.14378357 44.26544189 C186.90015238 65.92183798 186.71989643 89.33922519 177.30052185 110.41729736 C174.39535405 116.54068331 170.6638634 121.88428178 166.39378357 127.14044189 C165.77116638 127.97059814 165.14854919 128.80075439 164.50706482 129.65606689 C158.27795433 136.97901379 149.63349071 142.50841377 140.39378357 145.14044189 C139.73378357 145.14044189 139.07378357 145.14044189 138.39378357 145.14044189 C142.73441303 153.50529481 147.68388351 161.33776644 152.95628357 169.14044189 C153.76039041 170.33774049 154.56417838 171.53525329 155.36766052 172.73297119 C159.90861507 179.49346858 164.48206217 186.23195411 169.08128357 192.95294189 C169.58232605 193.68577393 170.08336853 194.41860596 170.59959412 195.17364502 C173.56206465 199.49676595 176.55346849 203.79828104 179.56175232 208.08966064 C180.9641142 210.10657512 182.36645824 212.123502 183.76878357 214.14044189 C184.44256042 215.09152832 185.11633728 216.04261475 185.81053162 217.02252197 C186.42323914 217.90706055 187.03594666 218.79159912 187.66722107 219.70294189 C188.21813416 220.48798096 188.76904724 221.27302002 189.33665466 222.08184814 C189.6855072 222.76118408 190.03435974 223.44052002 190.39378357 224.14044189 C190.06378357 225.13044189 189.73378357 226.12044189 189.39378357 227.14044189 C184.54196578 227.33588969 179.68989757 227.51402579 174.8368988 227.67755127 C173.19317946 227.73520877 171.5496063 227.79723467 169.90623474 227.86407471 C139.168591 229.10372303 139.168591 229.10372303 128.39378357 220.14044189 C125.49158474 217.31424173 122.75496138 214.43817627 120.39378357 211.14044189 C120.39378357 210.48044189 120.39378357 209.82044189 120.39378357 209.14044189 C119.73378357 209.14044189 119.07378357 209.14044189 118.39378357 209.14044189 C117.91940857 208.25356689 117.44503357 207.36669189 116.95628357 206.45294189 C114.20882293 201.6154487 110.93727574 197.14053701 107.71018982 192.61700439 C105.50676233 189.41571036 103.65713072 186.06805667 101.79344177 182.66094971 C99.06900554 177.75477848 96.16512807 172.97047493 93.20628357 168.20294189 C92.59720154 167.16331299 91.98811951 166.12368408 91.36058044 165.05255127 C88.02452784 159.55424027 88.02452784 159.55424027 82.85887146 156.01373291 C80.33024828 155.48189788 77.97348414 155.21938688 75.39378357 155.14044189 C73.98032654 155.02635986 73.98032654 155.02635986 72.53831482 154.90997314 C71.76874451 154.92415283 70.99917419 154.93833252 70.20628357 154.95294189 C68.85663513 154.97614502 68.85663513 154.97614502 67.47972107 154.99981689 C62.47255696 155.22799146 57.47860273 155.60859382 52.48362732 156.01934814 C49.39378357 156.14044189 49.39378357 156.14044189 47.39378357 155.14044189 C47.40266602 155.7129216 47.41154846 156.28540131 47.42070007 156.87522888 C47.50997387 162.89476418 47.56984556 168.91410806 47.61351013 174.93414307 C47.6334855 177.17347873 47.66067539 179.41276318 47.69554138 181.6519165 C48.1515246 211.71328067 48.1515246 211.71328067 39.01878357 222.55841064 C31.05955525 230.3071786 20.10287872 230.50192668 9.58128357 230.51544189 C8.55841248 230.53993408 7.53554138 230.56442627 6.48167419 230.58966064 C5.49747498 230.59352783 4.51327576 230.59739502 3.49925232 230.60137939 C2.17123596 230.61370605 2.17123596 230.61370605 0.81639099 230.62628174 C-2.57777549 229.94560137 -3.53874754 228.92756262 -5.60621643 226.14044189 C-6.20024784 223.13819488 -6.13274885 220.17615083 -6.09396362 217.12428284 C-6.09808689 216.20277142 -6.10221015 215.28126001 -6.10645837 214.331824 C-6.11540496 211.23688661 -6.09570924 208.14279178 -6.07618713 205.0479126 C-6.07669577 202.83222348 -6.07895042 200.61653418 -6.08282471 198.40084839 C-6.08825327 192.37836235 -6.06880891 186.35618283 -6.04472375 180.33375192 C-6.02346951 174.04147545 -6.02402432 167.74920058 -6.02203369 161.45689392 C-6.01558215 150.89229241 -5.99444554 140.32779441 -5.96290588 129.76324463 C-5.93045409 118.88433347 -5.90922215 108.00548334 -5.90138245 97.12652588 C-5.90089696 96.45606817 -5.90041146 95.78561046 -5.89991126 95.09483586 C-5.8979827 92.40019352 -5.89607057 89.70555117 -5.89419516 87.0109088 C-5.88621623 76.02853092 -5.86894355 65.04616522 -5.850559 54.06380057 C-5.84448255 50.30686556 -5.83934453 46.54992994 -5.83420753 42.79299355 C-5.82545043 36.90220896 -5.81116682 31.01146209 -5.79249763 25.12070084 C-5.7863553 22.95223212 -5.78191622 20.78375784 -5.77925491 18.61528206 C-5.77529779 15.66870166 -5.76520377 12.72220782 -5.75338745 9.77565002 C-5.75357181 8.90582798 -5.75375618 8.03600593 -5.75394613 7.13982564 C-5.71342311 0.01952177 -5.71342311 0.01952177 0 0 Z M47.39378357 46.14044189 C47.39378357 66.93044189 47.39378357 87.72044189 47.39378357 109.14044189 C55.66440857 109.20231689 63.93503357 109.26419189 72.45628357 109.32794189 C75.03448914 109.35525391 77.6126947 109.38256592 80.26902771 109.41070557 C103.06069344 110.12047743 103.06069344 110.12047743 123.39378357 101.14044189 C123.72378357 100.15044189 124.05378357 99.16044189 124.39378357 98.14044189 C125.05378357 98.14044189 125.71378357 98.14044189 126.39378357 98.14044189 C131.84666176 88.73318639 134.90747259 79.1955627 132.14378357 68.38262939 C129.49946969 60.4772327 124.44434736 55.0239198 117.19065857 50.88262939 C107.89983076 46.49709879 98.86928039 45.85224089 88.70237732 45.94512939 C87.64989807 45.94714355 86.59741882 45.94915771 85.51304626 45.95123291 C81.61908039 45.96161794 77.72517714 45.98953991 73.83128357 46.01544189 C65.10690857 46.05669189 56.38253357 46.09794189 47.39378357 46.14044189 Z " fill="#ED3136" transform="translate(558.6062164306641,230.85955810546875)"/>
<path d="M0 0 C4.90095327 4.72785117 8.32055836 10.51032894 8.5625 17.4375 C8.37038893 29.30996428 1.20348452 39.32822393 -5.75 48.4375 C-11.87907997 47.99467649 -16.43497531 45.10556927 -21.6875 42.1875 C-39.67963753 32.54708471 -62.22944785 24.40041448 -82.75 30.4375 C-87.5867182 32.33574105 -90.66633028 34.71521418 -93.25 39.25 C-95.48806769 44.53183976 -95.46128523 48.94800168 -93.875 54.5 C-83.05612834 69.45549905 -58.68523069 72.76120315 -41.83959961 77.06591797 C-19.95181839 82.73258455 4.04655816 92.04458065 16.38525391 112.30126953 C17.53581945 114.34534358 18.62566363 116.4085189 19.6875 118.5 C20.01766113 119.14839844 20.34782227 119.79679688 20.68798828 120.46484375 C24.45694327 128.32225699 25.62478803 136.09107443 25.5625 144.75 C25.55686035 145.58104248 25.5512207 146.41208496 25.54541016 147.26831055 C25.41307943 154.0112817 24.52869958 160.05886747 22.25 166.4375 C21.8478125 167.56542969 21.445625 168.69335938 21.03125 169.85546875 C14.68913949 186.01023357 4.38452033 197.28117168 -10.75 205.4375 C-11.56984375 205.8809375 -12.3896875 206.324375 -13.234375 206.78125 C-36.31370224 218.25097626 -66.15065827 218.06282634 -90.75 212.4375 C-91.54809082 212.25525879 -92.34618164 212.07301758 -93.16845703 211.88525391 C-112.68643128 207.30696365 -130.86509326 200.93536322 -142.625 183.6875 C-145.22950534 178.47848932 -145.75454441 172.85053039 -144.1015625 167.234375 C-141.63214834 161.19802928 -137.86829904 156.43487911 -133.75 151.4375 C-133.22535156 150.69113281 -132.70070313 149.94476563 -132.16015625 149.17578125 C-131.46212891 148.31533203 -131.46212891 148.31533203 -130.75 147.4375 C-130.09 147.4375 -129.43 147.4375 -128.75 147.4375 C-128.75 146.7775 -128.75 146.1175 -128.75 145.4375 C-128.09 145.4375 -127.43 145.4375 -126.75 145.4375 C-126.75 144.7775 -126.75 144.1175 -126.75 143.4375 C-121.60851286 143.89954569 -118.45876899 146.54409469 -114.4375 149.5 C-95.06347018 163.17552398 -72.35414729 172.06846834 -48.25 168.75 C-39.78711661 167.02756783 -33.59419805 163.74615445 -28.4375 156.625 C-26.89437115 151.71504458 -27.40954835 147.55342487 -28.875 142.75 C-36.08688813 130.00899765 -53.74363787 126.50985092 -66.91552734 122.83300781 C-69.87812867 122.01259514 -72.84215783 121.19746136 -75.80688477 120.38476562 C-81.50625251 118.81151223 -87.16755036 117.13344551 -92.8125 115.375 C-93.57344971 115.14176025 -94.33439941 114.90852051 -95.1184082 114.66821289 C-112.69572224 109.12224402 -129.6353601 100.55443907 -139.28125 84.265625 C-148.03367913 67.41254337 -148.24450027 44.93169831 -143.0078125 26.87890625 C-140.5273834 19.84370691 -136.26023189 14.30470642 -131.75 8.4375 C-131.09 7.4475 -130.43 6.4575 -129.75 5.4375 C-129.09 5.4375 -128.43 5.4375 -127.75 5.4375 C-127.75 4.7775 -127.75 4.1175 -127.75 3.4375 C-96.00190029 -25.11253106 -33.7383928 -27.74045631 0 0 Z " fill="#ED3136" transform="translate(514.75,245.5625)"/>
<path d="M0 0 C5.41992269 5.31176459 8.54165595 11.51185205 8.875 19.125 C8.20516164 31.35384383 0.89747722 41.73735477 -8 49.75 C-10.35329506 51.74528871 -11.70945724 52.63231908 -14.6875 53.625 C-16.94921875 52.26171875 -16.94921875 52.26171875 -19.375 50.3125 C-20.18324219 49.67699219 -20.99148438 49.04148437 -21.82421875 48.38671875 C-22.43910156 47.80535156 -23.05398438 47.22398437 -23.6875 46.625 C-23.6875 45.965 -23.6875 45.305 -23.6875 44.625 C-24.69296875 44.24988281 -24.69296875 44.24988281 -25.71875 43.8671875 C-28.61643347 42.65473573 -31.37435991 41.26192309 -34.15649414 39.80688477 C-52.63396256 30.1916713 -71.33908996 26.4461449 -91.6875 32.625 C-108.61743939 39.37243961 -120.02041568 51.31434355 -127.6875 67.625 C-135.76112735 87.12628386 -136.13871796 108.19021833 -128.375 127.875 C-120.36745574 145.85014414 -108.85625392 157.10154587 -90.6875 164.625 C-72.62582224 170.2778252 -51.91652037 167.43022407 -35.43359375 158.8671875 C-28.9627006 155.15713935 -23.11129484 150.46344251 -17.2746582 145.8425293 C-13.06342308 142.61203714 -13.06342308 142.61203714 -10.875 142.6875 C-2.45955926 146.29411746 3.70054012 155.43003414 8.375 162.9375 C10.17060881 170.00022799 10.82902571 178.26740877 7.75 185.0625 C-1.48183188 200.12833675 -21.25033047 208.40088085 -37.6875 212.625 C-71.94273496 220.16264429 -107.59643189 216.64041998 -137.6875 197.625 C-141.55973469 194.86958004 -145.11892064 191.75781224 -148.6875 188.625 C-149.61304688 187.91859375 -150.53859375 187.2121875 -151.4921875 186.484375 C-152.21664062 185.87078125 -152.94109375 185.2571875 -153.6875 184.625 C-153.6875 183.965 -153.6875 183.305 -153.6875 182.625 C-154.3475 182.625 -155.0075 182.625 -155.6875 182.625 C-158.23631865 180.15501079 -160.43616403 177.36555033 -162.6875 174.625 C-163.17476562 174.03589844 -163.66203125 173.44679688 -164.1640625 172.83984375 C-177.1907772 156.28354433 -183.61139126 138.29468034 -186.6875 117.625 C-186.87183594 116.43261719 -187.05617188 115.24023438 -187.24609375 114.01171875 C-189.09839458 98.60504371 -189.08872184 81.56785802 -184.6875 66.625 C-184.3471875 65.41585937 -184.006875 64.20671875 -183.65625 62.9609375 C-178.59397962 46.44014969 -170.42102845 33.05388995 -159.6875 19.625 C-158.62789062 18.26181641 -158.62789062 18.26181641 -157.546875 16.87109375 C-154.6201225 13.33562592 -151.22749666 10.5303591 -147.6875 7.625 C-146.82125 6.90957031 -145.955 6.19414062 -145.0625 5.45703125 C-137.14990568 -0.78918791 -128.8224504 -5.19808977 -119.6875 -9.375 C-118.81480469 -9.78621094 -117.94210937 -10.19742188 -117.04296875 -10.62109375 C-82.57221011 -25.71306133 -30.20716585 -23.98471595 0 0 Z " fill="#ED3136" transform="translate(942.6875,246.375)"/>
<path d="M0 0 C1.79630859 0.01740234 1.79630859 0.01740234 3.62890625 0.03515625 C5.49095703 0.09123047 5.49095703 0.09123047 7.390625 0.1484375 C9.27587891 0.16970703 9.27587891 0.16970703 11.19921875 0.19140625 C20.45874828 0.34156078 20.45874828 0.34156078 21.640625 1.5234375 C23.72609404 12.45722039 24.63259415 24.93420095 18.22819901 34.49280357 C13.77594972 40.10583789 8.73737235 45.1215704 3.59138846 50.08758104 C0.91985973 52.69511965 -1.67182833 55.38029101 -4.27520752 58.05555725 C-9.36946318 63.26523846 -14.53296916 68.40028001 -19.72606508 73.51124849 C-23.94933102 77.67046207 -28.14490741 81.85587672 -32.32265091 86.06080055 C-32.92017286 86.66217108 -33.51769482 87.2635416 -34.1333235 87.88313547 C-35.34754383 89.10541713 -36.56170057 90.32776196 -37.77579446 91.55016921 C-49.12875972 102.97473122 -60.56219147 114.3158636 -72.02575214 125.62930111 C-81.83383188 135.31266353 -91.57050429 145.06329395 -101.25830078 154.86694336 C-112.54304711 166.28656363 -123.86912564 177.66242627 -135.26388991 188.97235233 C-136.48160655 190.18121768 -137.69927318 191.3901334 -138.91688919 192.59910011 C-139.51580671 193.19371148 -140.11472424 193.78832286 -140.73179077 194.40095275 C-144.92446649 198.56915416 -149.0866593 202.76634486 -153.23768234 206.97598839 C-158.30623366 212.11439776 -163.41948621 217.20287761 -168.59335367 222.23530831 C-171.22675099 224.7989466 -173.83616132 227.37799418 -176.39219284 230.01897049 C-185.55827629 239.46429688 -193.31371046 247.36870423 -207.11574328 247.88954622 C-220.2143387 247.59595565 -220.2143387 247.59595565 -224.359375 245.5234375 C-226.9639454 221.00841944 -226.9639454 221.00841944 -221.1953125 213.56640625 C-218.12460841 210.33019446 -214.75623871 207.54552863 -211.17114258 204.89794922 C-207.84540372 202.37485128 -205.07190998 199.45710403 -202.546875 196.1484375 C-200.76460093 194.00970861 -199.18670595 192.47381191 -197.078125 190.7109375 C-190.61748401 185.1151758 -184.69042782 178.95970939 -178.671875 172.8984375 C-177.45010554 171.67164018 -176.22810195 170.44507597 -175.00585938 169.21875 C-172.76197876 166.96676764 -170.51945756 164.71345113 -168.27856445 162.45849609 C-165.64413284 159.80816226 -163.00302543 157.16457893 -160.359375 154.5234375 C-159.80443359 153.96849609 -159.24949219 153.41355469 -158.67773438 152.84179688 C-148.26855469 142.43261719 -148.26855469 142.43261719 -137.859375 132.0234375 C-137.08207031 131.24484375 -136.30476563 130.46625 -135.50390625 129.6640625 C-133.86109739 128.02424601 -132.20652532 126.3962067 -130.546875 124.7734375 C-128.32957591 122.58219371 -128.32957591 122.58219371 -126.546875 120.1484375 C-124.07564068 117.18295631 -121.32630646 114.86313678 -118.390625 112.37109375 C-115.84199493 110.05282063 -113.71296127 107.51193402 -111.5859375 104.80859375 C-111.18117188 104.38449219 -110.77640625 103.96039063 -110.359375 103.5234375 C-109.699375 103.5234375 -109.039375 103.5234375 -108.359375 103.5234375 C-108.359375 102.8634375 -108.359375 102.2034375 -108.359375 101.5234375 C-107.699375 101.5234375 -107.039375 101.5234375 -106.359375 101.5234375 C-106.359375 100.8634375 -106.359375 100.2034375 -106.359375 99.5234375 C-104.8203125 98.04296875 -104.8203125 98.04296875 -102.734375 96.3359375 C-100.02470723 94.0398506 -97.60640784 91.77325946 -95.359375 89.0234375 C-92.68270124 85.77679816 -89.70754557 83.13567454 -86.5078125 80.4140625 C-82.60281987 76.97766898 -79.00759475 73.22778371 -75.359375 69.5234375 C-74.4725 68.6571875 -73.585625 67.7909375 -72.671875 66.8984375 C-70.18291106 64.34220427 -67.93276812 61.65251764 -65.69140625 58.87890625 C-65.25183594 58.43160156 -64.81226563 57.98429687 -64.359375 57.5234375 C-63.699375 57.5234375 -63.039375 57.5234375 -62.359375 57.5234375 C-62.359375 56.8634375 -62.359375 56.2034375 -62.359375 55.5234375 C-61.699375 55.5234375 -61.039375 55.5234375 -60.359375 55.5234375 C-60.359375 54.8634375 -60.359375 54.2034375 -60.359375 53.5234375 C-58.92578125 52.11328125 -58.92578125 52.11328125 -56.921875 50.4609375 C-52.13716828 46.3973302 -47.759603 41.99476433 -43.359375 37.5234375 C-41.69352291 35.85595666 -40.02670699 34.18943858 -38.359375 32.5234375 C-37.37039595 31.53455197 -36.38146558 30.54561775 -35.39257812 29.55664062 C-14.32617187 8.49023437 -14.32617187 8.49023437 -12.79522705 6.98208618 C-11.43097045 5.59616965 -10.146521 4.1330057 -8.86816406 2.66748047 C-5.71039238 -0.03119128 -4.10612944 -0.07407655 0 0 Z " fill="#ED3136" transform="translate(296.359375,217.4765625)"/>
<path d="M0 0 C0 4.38497193 -0.0746817 4.57471513 -2.94330311 7.44387436 C-3.59981478 8.11020032 -4.25632644 8.77652627 -4.9327324 9.46304393 C-6.03274671 10.54865072 -6.03274671 10.54865072 -7.15498352 11.65618896 C-8.30949557 12.81900261 -8.30949557 12.81900261 -9.48733109 14.00530744 C-12.08275486 16.6144028 -14.69231274 19.2088899 -17.30200195 21.80371094 C-19.16001913 23.66550887 -21.01717697 25.52816474 -22.87353516 27.39161682 C-27.40210713 31.93414235 -31.94138277 36.46582528 -36.48444644 40.99385253 C-41.77092512 46.26349709 -47.04737883 51.54313175 -52.32357147 56.82307163 C-61.73553488 66.24091743 -71.15750138 75.64869333 -80.5847168 85.05126953 C-89.73975858 94.18238603 -98.88633216 103.32188148 -108.02416992 112.47021484 C-117.96707269 122.42451737 -127.91467895 132.37407507 -137.87050599 142.31545281 C-138.93132976 143.37475069 -139.99215077 144.43405134 -141.05296898 145.4933548 C-141.57496368 146.01459169 -142.09695839 146.53582858 -142.63477111 147.07286052 C-146.31937922 150.75271878 -150.0006715 154.43587445 -153.68078041 158.12023163 C-158.63027217 163.07515385 -163.58776998 168.0219437 -168.55080414 172.9633007 C-170.37596258 174.78287333 -172.1985496 176.60502929 -174.01843071 178.42988014 C-176.49346122 180.91082305 -178.9774492 183.38242336 -181.46406555 185.85174561 C-182.19071626 186.58440635 -182.91736696 187.3170671 -183.66603738 188.07192969 C-184.66253974 189.05577215 -184.66253974 189.05577215 -185.67917347 190.0594902 C-186.25217145 190.63145905 -186.82516943 191.2034279 -187.41553098 191.79272914 C-189 193 -189 193 -192 193 C-196.90957526 175.23509047 -199.81225884 153.8742514 -190.87398624 136.85611153 C-176.38418134 112.52179119 -153.33375188 92.62505672 -133.08860099 73.20244861 C-127.39955489 67.72132296 -121.86034966 62.11551845 -116.38549805 56.42089844 C-48.80886876 -13.80612243 -48.80886876 -13.80612243 0 0 Z " fill="#ED3136" transform="translate(264,218)"/>
<path d="M0 0 C5.00409753 17.48788638 7.76317878 38.41088183 -1.13616562 55.13516331 C-15.85014912 79.57244458 -39.02636136 99.59062032 -59.41332293 119.1709069 C-65.14873808 124.70218343 -70.73745642 130.35613534 -76.26269531 136.09692383 C-134.76263846 196.82678036 -134.76263846 196.82678036 -163.60235596 197.52787781 C-173.34296514 197.22999286 -182.65862852 195.73765199 -192 193 C-192 188.32409833 -191.11997802 187.30350614 -188 184 C-187.34 184 -186.68 184 -186 184 C-186 183.34 -186 182.68 -186 182 C-185.34 182 -184.68 182 -184 182 C-184 181.34 -184 180.68 -184 180 C-183.34 180 -182.68 180 -182 180 C-182 179.34 -182 178.68 -182 178 C-181.34 178 -180.68 178 -180 178 C-180 177.34 -180 176.68 -180 176 C-179.34 176 -178.68 176 -178 176 C-178 175.34 -178 174.68 -178 174 C-176.64453125 172.703125 -176.64453125 172.703125 -174.8125 171.25 C-172.31341917 169.19609956 -170.19512386 167.16157864 -168.1875 164.625 C-167.465625 163.75875 -166.74375 162.8925 -166 162 C-165.34 162 -164.68 162 -164 162 C-164 161.34 -164 160.68 -164 160 C-163.34 160 -162.68 160 -162 160 C-162 159.34 -162 158.68 -162 158 C-160.50390625 156.5625 -160.50390625 156.5625 -158.5625 155 C-155.84811762 152.85474956 -155.84811762 152.85474956 -154 150 C-153.34 150 -152.68 150 -152 150 C-152 149.34 -152 148.68 -152 148 C-151.34 148 -150.68 148 -150 148 C-150 147.34 -150 146.68 -150 146 C-149.34 146 -148.68 146 -148 146 C-148 145.34 -148 144.68 -148 144 C-147.34 144 -146.68 144 -146 144 C-146 143.34 -146 142.68 -146 142 C-145.34 142 -144.68 142 -144 142 C-144 141.34 -144 140.68 -144 140 C-143.34 140 -142.68 140 -142 140 C-142 139.34 -142 138.68 -142 138 C-140.3203125 136.37890625 -140.3203125 136.37890625 -138.125 134.5625 C-135.53806278 132.41599116 -133.88815626 130.83223438 -132 128 C-131.34 128 -130.68 128 -130 128 C-130 127.34 -130 126.68 -130 126 C-129.34 126 -128.68 126 -128 126 C-128 125.34 -128 124.68 -128 124 C-127.34 124 -126.68 124 -126 124 C-126 123.34 -126 122.68 -126 122 C-125.34 122 -124.68 122 -124 122 C-124 121.34 -124 120.68 -124 120 C-122.50390625 118.5625 -122.50390625 118.5625 -120.5625 117 C-117.84811762 114.85474956 -117.84811762 114.85474956 -116 112 C-115.34 112 -114.68 112 -114 112 C-114 111.34 -114 110.68 -114 110 C-113.34 110 -112.68 110 -112 110 C-112 109.34 -112 108.68 -112 108 C-111.34 108 -110.68 108 -110 108 C-110 107.34 -110 106.68 -110 106 C-109.34 106 -108.68 106 -108 106 C-108 105.34 -108 104.68 -108 104 C-107.34 104 -106.68 104 -106 104 C-106 103.34 -106 102.68 -106 102 C-104.64453125 100.703125 -104.64453125 100.703125 -102.8125 99.25 C-100.31341917 97.19609956 -98.19512386 95.16157864 -96.1875 92.625 C-95.465625 91.75875 -94.74375 90.8925 -94 90 C-93.34 90 -92.68 90 -92 90 C-92 89.34 -92 88.68 -92 88 C-91.34 88 -90.68 88 -90 88 C-90 87.34 -90 86.68 -90 86 C-89.34 86 -88.68 86 -88 86 C-88 85.34 -88 84.68 -88 84 C-87.34 84 -86.68 84 -86 84 C-86 83.34 -86 82.68 -86 82 C-84.50390625 80.5625 -84.50390625 80.5625 -82.5625 79 C-79.84811762 76.85474956 -79.84811762 76.85474956 -78 74 C-77.34 74 -76.68 74 -76 74 C-76 73.34 -76 72.68 -76 72 C-75.34 72 -74.68 72 -74 72 C-74 71.34 -74 70.68 -74 70 C-73.34 70 -72.68 70 -72 70 C-72 69.34 -72 68.68 -72 68 C-71.34 68 -70.68 68 -70 68 C-70 67.34 -70 66.68 -70 66 C-68.50390625 64.5625 -68.50390625 64.5625 -66.5625 63 C-63.84811762 60.85474956 -63.84811762 60.85474956 -62 58 C-61.34 58 -60.68 58 -60 58 C-60 57.34 -60 56.68 -60 56 C-59.34 56 -58.68 56 -58 56 C-58 55.34 -58 54.68 -58 54 C-57.34 54 -56.68 54 -56 54 C-56 53.34 -56 52.68 -56 52 C-55.34 52 -54.68 52 -54 52 C-54 51.34 -54 50.68 -54 50 C-53.34 50 -52.68 50 -52 50 C-52 49.34 -52 48.68 -52 48 C-51.34 48 -50.68 48 -50 48 C-50 47.34 -50 46.68 -50 46 C-49.34 46 -48.68 46 -48 46 C-48 45.34 -48 44.68 -48 44 C-46.125 41.875 -46.125 41.875 -44 40 C-43.34 40 -42.68 40 -42 40 C-42 39.34 -42 38.68 -42 38 C-41.34 38 -40.68 38 -40 38 C-40 37.34 -40 36.68 -40 36 C-39.34 36 -38.68 36 -38 36 C-38 35.34 -38 34.68 -38 34 C-37.34 34 -36.68 34 -36 34 C-36 33.34 -36 32.68 -36 32 C-35.34 32 -34.68 32 -34 32 C-34 31.34 -34 30.68 -34 30 C-33.34 30 -32.68 30 -32 30 C-32 29.34 -32 28.68 -32 28 C-31.34 28 -30.68 28 -30 28 C-30 27.34 -30 26.68 -30 26 C-28.125 23.875 -28.125 23.875 -26 22 C-25.34 22 -24.68 22 -24 22 C-24 21.34 -24 20.68 -24 20 C-23.34 20 -22.68 20 -22 20 C-22 19.34 -22 18.68 -22 18 C-21.34 18 -20.68 18 -20 18 C-20 17.34 -20 16.68 -20 16 C-19.34 16 -18.68 16 -18 16 C-18 15.34 -18 14.68 -18 14 C-17.34 14 -16.68 14 -16 14 C-16 13.34 -16 12.68 -16 12 C-15.34 12 -14.68 12 -14 12 C-14 11.34 -14 10.68 -14 10 C-13.34 10 -12.68 10 -12 10 C-12 9.34 -12 8.68 -12 8 C-10.3603279 6.63360658 -8.68889872 5.3050581 -7 4 C-6.29875 3.2575 -5.5975 2.515 -4.875 1.75 C-3 0 -3 0 0 0 Z " fill="#ED3136" transform="translate(318,271)"/>
<path d="M0 0 C1.52657227 -0.01723618 1.52657227 -0.01723618 3.08398438 -0.03482056 C4.20501556 -0.0422226 5.32604675 -0.04962463 6.48104858 -0.05725098 C7.6584259 -0.06864105 8.83580322 -0.08003113 10.04885864 -0.09176636 C13.96030715 -0.12689237 17.87175974 -0.15355184 21.78329468 -0.1763916 C22.78217311 -0.1823104 22.78217311 -0.1823104 23.80123091 -0.18834877 C30.0847839 -0.22477788 36.36834818 -0.25621558 42.65197182 -0.27745819 C50.68180537 -0.30500667 58.71075308 -0.35571378 66.7402178 -0.43793249 C72.38958433 -0.49381329 78.03871126 -0.52270719 83.68834436 -0.5319314 C87.06038315 -0.53817667 90.43138369 -0.5561834 93.80311966 -0.60331726 C97.57147519 -0.64947647 101.33747336 -0.6515273 105.10604858 -0.64318848 C106.76937729 -0.67858231 106.76937729 -0.67858231 108.46630859 -0.71469116 C115.22566103 -0.6423842 118.77709586 0.51478387 123.56329918 5.37163544 C124.36442351 6.2605183 124.36442351 6.2605183 125.18173218 7.1673584 C126.03043349 7.96049816 126.03043349 7.96049816 126.89628029 8.76966095 C128.18173218 10.1673584 128.18173218 10.1673584 128.18173218 12.1673584 C129.17173218 12.4973584 130.16173218 12.8273584 131.18173218 13.1673584 C131.18173218 13.8273584 131.18173218 14.4873584 131.18173218 15.1673584 C131.75923218 15.4148584 132.33673218 15.6623584 132.93173218 15.9173584 C135.51113197 17.35035828 137.2429481 18.95160516 139.18173218 21.1673584 C139.18173218 21.8273584 139.18173218 22.4873584 139.18173218 23.1673584 C139.82110718 23.4767334 140.46048218 23.7861084 141.11923218 24.1048584 C143.18173218 25.1673584 143.18173218 25.1673584 144.18173218 26.1673584 C144.27020961 28.68829916 144.29700519 31.18166733 144.27938843 33.70251465 C144.27726601 34.83239052 144.27726601 34.83239052 144.27510071 35.98509216 C144.26948594 38.400054 144.25693101 40.81492441 144.24423218 43.2298584 C144.23921908 44.8633206 144.23465584 46.49678426 144.2305603 48.13024902 C144.21951171 52.14265425 144.20223724 56.1549908 144.18173218 60.1673584 C138.71753072 60.99802971 133.50578306 61.35031466 127.99423218 61.3548584 C127.20081421 61.36710449 126.40739624 61.37935059 125.5899353 61.39196777 C124.43848022 61.39486816 124.43848022 61.39486816 123.26376343 61.39782715 C122.57516235 61.40193604 121.88656128 61.40604492 121.17709351 61.41027832 C119.18173218 61.1673584 119.18173218 61.1673584 115.18173218 59.1673584 C115.18173218 49.5973584 115.18173218 40.0273584 115.18173218 30.1673584 C107.69125527 29.48640595 100.49916935 29.02611706 93.01889038 29.05383301 C91.43640251 29.05361397 91.43640251 29.05361397 89.82194519 29.0533905 C86.37544616 29.05408066 82.92900288 29.06183056 79.48251343 29.06970215 C77.07684865 29.07156952 74.67118349 29.07299192 72.26551819 29.07398987 C65.96424288 29.0777899 59.66299098 29.08759849 53.36172485 29.09869385 C46.91956906 29.10896226 40.47740944 29.11349908 34.0352478 29.11853027 C21.41739737 29.12922321 8.79957039 29.14679942 -3.81826782 29.1673584 C-3.81826782 39.3973584 -3.81826782 49.6273584 -3.81826782 60.1673584 C-7.54608033 60.9129209 -10.37374485 61.2954643 -14.08389282 61.3001709 C-15.05584595 61.30145996 -16.02779907 61.30274902 -17.02920532 61.30407715 C-18.03209595 61.30020996 -19.03498657 61.29634277 -20.06826782 61.2923584 C-21.0866272 61.29622559 -22.10498657 61.30009277 -23.15420532 61.30407715 C-24.1210022 61.30278809 -25.08779907 61.30149902 -26.08389282 61.3001709 C-26.96851196 61.29904297 -27.8531311 61.29791504 -28.76455688 61.29675293 C-30.81826782 61.1673584 -30.81826782 61.1673584 -31.81826782 60.1673584 C-33.90892242 48.53971773 -36.35481576 32.45465652 -29.39248657 22.12390137 C-22.92357384 13.7947576 -11.09472191 0.10214055 0 0 Z " fill="#ED3035" transform="translate(138.81826782226563,144.8326416015625)"/>
<path d="M0 0 C12.80562761 0.44939245 19.88931156 6.60188297 28.32110405 15.4436264 C30.23540073 17.50011979 32.10456907 19.59504757 33.97340393 21.69281006 C35.91099657 23.83504953 37.91183415 25.91218358 39.91798878 27.99004745 C44.05081436 32.27452495 48.13771506 36.60651116 52.11457825 41.03607178 C52.8140004 41.8088446 53.51342255 42.58161743 54.23403931 43.37780762 C55.59577942 45.52923584 55.59577942 45.52923584 55.45417786 47.64299011 C54.06611276 50.69312598 51.72698009 52.86585673 49.38874817 55.20501709 C48.60604301 55.99914253 48.60604301 55.99914253 47.80752563 56.80931091 C46.70428331 57.92333978 45.59705907 59.03343748 44.48616028 60.13983154 C42.78562049 61.83939611 41.10753597 63.55918081 39.42976379 65.28118896 C38.35489461 66.36126299 37.27876428 67.44008371 36.20124817 68.51751709 C35.70005966 69.03510086 35.19887115 69.55268463 34.68249512 70.08595276 C33.23713684 71.50311279 33.23713684 71.50311279 30.59577942 73.52923584 C26.84890017 73.25160382 24.80959105 71.24485222 22.10261536 68.78924561 C21.22200439 67.99232803 20.34139343 67.19541046 19.43409729 66.37434387 C15.95096196 63.13559564 12.48595884 59.87923714 9.05659103 56.58355808 C6.46413073 54.09242934 3.85383548 51.63271772 1.17488098 49.23455811 C-17.43957134 32.52788364 -17.43957134 32.52788364 -18.79679871 21.29046631 C-19.03416478 14.99658132 -18.7353315 8.69994899 -17.40422058 2.52923584 C-13.97990118 -0.89508356 -4.51945946 0.1266874 0 0 Z " fill="#ED3136" transform="translate(89.40422058105469,216.47076416015625)"/>
<path d="M0 0 C1.06486855 0.89301656 2.12675041 1.7895947 3.1875 2.6875 C3.77917969 3.18636719 4.37085938 3.68523437 4.98046875 4.19921875 C6.41100827 5.47480622 7.79071061 6.80846717 9.13085938 8.17871094 C11.88132803 10.9432403 14.80707706 13.47842687 17.74980164 16.03501892 C46.86872964 41.54626683 46.86872964 41.54626683 48.23828125 53.47265625 C48.47846657 60.13603582 47.71140685 66.55860537 46 73 C40.51625411 73.88328793 35.1142127 74.34125365 29.5625 74.5 C28.35110352 74.58121094 28.35110352 74.58121094 27.11523438 74.6640625 C22.45510985 74.76920632 19.75661024 74.23561801 16.28881836 71.03100586 C15.59719101 70.39488373 14.90556366 69.7587616 14.19297791 69.10336304 C10.30885986 65.37796739 6.48099934 61.60277439 2.6875 57.78515625 C1.83317383 56.92941513 0.97884766 56.07367401 0.09863281 55.19200134 C-2.60328862 52.48452619 -5.30169359 49.77357746 -8 47.0625 C-9.84221577 45.21526325 -11.68466143 43.36825573 -13.52734375 41.52148438 C-18.02089061 37.01696997 -22.5115632 32.50960595 -27 28 C-26.06222392 26.89436006 -25.1227635 25.79014863 -24.18261719 24.68652344 C-23.6596405 24.07145935 -23.13666382 23.45639526 -22.59783936 22.82269287 C-20.2675431 20.16446922 -17.77785981 17.7219955 -15.25 15.25 C-12.49699944 12.55717431 -10.13702874 10.20554311 -8 7 C-7.34 7 -6.68 7 -6 7 C-5.67 6.01 -5.34 5.02 -5 4 C-3.37667033 2.61423077 -1.71275535 1.27358732 0 0 Z " fill="#ED3136" transform="translate(272,390)"/>
<path d="M0 0 C6.53437307 5.48801222 12.62976484 11.34101311 18.69140625 17.34130859 C19.90619811 18.53937411 21.1263513 19.73202559 22.3515625 20.91943359 C24.13192833 22.64534675 25.89556013 24.38685921 27.65625 26.1328125 C28.20817017 26.66206329 28.76009033 27.19131409 29.32873535 27.73660278 C32.95088498 31.37948096 32.95088498 31.37948096 33.15942383 34.01416016 C31.44342443 36.95329242 29.1890285 39.2584318 26.79296875 41.640625 C26.27116531 42.16767029 25.74936188 42.69471558 25.21174622 43.23773193 C24.10840752 44.34748341 23.00118542 45.45338559 21.89038086 46.55566406 C20.19167911 48.24584186 18.51248314 49.95384756 16.83398438 51.6640625 C15.75894415 52.74071448 14.68280817 53.81627368 13.60546875 54.890625 C13.10428024 55.40304749 12.60309174 55.91546997 12.0867157 56.44342041 C9.08103547 59.3899853 8.40902118 60 4 60 C2.25 58.625 2.25 58.625 1 57 C1 56.34 1 55.68 1 55 C0.34 55 -0.32 55 -1 55 C-1.02526605 47.32788798 -1.04283123 39.6557866 -1.05493164 31.98364258 C-1.05997377 29.37133381 -1.06680725 26.75902789 -1.07543945 24.14672852 C-1.08751036 20.40119732 -1.09322935 16.65570328 -1.09765625 12.91015625 C-1.10281754 11.73413345 -1.10797882 10.55811066 -1.11329651 9.34645081 C-1.11340981 7.72488319 -1.11340981 7.72488319 -1.11352539 6.07055664 C-1.115746 5.11347305 -1.11796661 4.15638947 -1.12025452 3.17030334 C-1 1 -1 1 0 0 Z " fill="#ED3035" transform="translate(73,269)"/>
<path d="M0 0 C2.28810234 0.91412051 3.49364748 1.92232732 5.2210083 3.67164612 C5.82132874 4.27219315 6.42164917 4.87274017 7.04016113 5.4914856 C7.67572937 6.14253769 8.31129761 6.79358978 8.96612549 7.46437073 C9.62634705 8.12883713 10.2865686 8.79330353 10.96679688 9.47790527 C13.07267689 11.60057011 15.16788376 13.73343053 17.26300049 15.86671448 C18.68939281 17.30815381 20.11646819 18.74891756 21.54425049 20.1889801 C25.04180642 23.7196028 28.52982613 27.25940501 32.01300049 30.80421448 C31.68300049 31.79421448 31.35300049 32.78421448 31.01300049 33.80421448 C23.71745411 33.93115111 16.42219324 34.01862364 9.12579346 34.07887268 C6.6445654 34.10399289 4.16341118 34.13809517 1.68243408 34.18141174 C-1.88725006 34.24216928 -5.45595456 34.27045028 -9.02606201 34.29249573 C-10.13253082 34.31830215 -11.23899963 34.34410858 -12.3789978 34.37069702 C-20.98948219 34.37382186 -20.98948219 34.37382186 -24.67205811 31.4611969 C-26.98699951 28.80421448 -26.98699951 28.80421448 -27.98699951 25.80421448 C-15.98699951 13.80421448 -15.98699951 13.80421448 -13.93621826 11.78858948 C-13.21047607 11.07187073 -12.48473389 10.35515198 -11.73699951 9.61671448 C-11.05121826 8.94253479 -10.36543701 8.2683551 -9.65887451 7.57374573 C-7.9125084 5.89622452 -7.9125084 5.89622452 -6.98699951 3.80421448 C-6.32699951 3.80421448 -5.66699951 3.80421448 -4.98699951 3.80421448 C-4.98699951 3.14421448 -4.98699951 2.48421448 -4.98699951 1.80421448 C-1.98699951 -0.19578552 -1.98699951 -0.19578552 0 0 Z " fill="#ED3035" transform="translate(233.98699951171875,430.19578552246094)"/>
<path d="M0 0 C3.26460973 1.80412643 4.88929795 2.83394693 7 6 C7.24050903 8.33488464 7.24050903 8.33488464 7.22705078 11.11401367 C7.22689972 12.15486618 7.22674866 13.19571869 7.22659302 14.26811218 C7.21627045 15.39006485 7.20594788 16.51201752 7.1953125 17.66796875 C7.1924826 18.81791824 7.18965271 19.96786774 7.18673706 21.15266418 C7.17552833 24.83104796 7.15042224 28.50918962 7.125 32.1875 C7.11497111 34.67903295 7.1058451 37.1705697 7.09765625 39.66210938 C7.07558673 45.77482241 7.04210224 51.88739391 7 58 C2.4690406 58 1.94998954 57.52869421 -1.25 54.625 C-1.95640625 53.99851562 -2.6628125 53.37203125 -3.390625 52.7265625 C-5 51 -5 51 -5 49 C-5.66 49 -6.32 49 -7 49 C-7 48.34 -7 47.68 -7 47 C-7.66 47 -8.32 47 -9 47 C-10.375 45.6015625 -10.375 45.6015625 -12 43.625 C-15.73056333 39.19249135 -19.83143213 35.25314549 -24.05859375 31.296875 C-26 29 -26 29 -26 25 C-25.34 25 -24.68 25 -24 25 C-24 24.34 -24 23.68 -24 23 C-22.390625 21.44921875 -22.390625 21.44921875 -20.25 19.6875 C-17.08238651 17.01237765 -14.56907035 14.26074314 -12 11 C-11.34 11 -10.68 11 -10 11 C-10 10.34 -10 9.68 -10 9 C-8.3203125 7.34375 -8.3203125 7.34375 -6.125 5.5 C-4.00964496 3.71066742 -1.95980876 1.95980876 0 0 Z " fill="#ED3035" transform="translate(311,351)"/>
<path d="M0 0 C7.45634335 -0.10144294 14.91250866 -0.17148385 22.36938477 -0.21972656 C24.90591075 -0.23983841 27.4423904 -0.26713161 29.97875977 -0.30175781 C33.62527911 -0.35029242 37.27118528 -0.37297363 40.91796875 -0.390625 C42.61822456 -0.42159271 42.61822456 -0.42159271 44.35282898 -0.45318604 C52.20845645 -0.45542354 52.20845645 -0.45542354 56.19262695 1.83691406 C58 4 58 4 59 7 C55.38640525 10.73700987 51.75682269 14.45743164 48.11132812 18.16333008 C46.87304836 19.42678474 45.63928916 20.69468621 44.41015625 21.96704102 C42.64446489 23.79325002 40.86323282 25.60294772 39.078125 27.41015625 C38.53005188 27.9840358 37.98197876 28.55791534 37.41729736 29.14918518 C35.84082031 30.72680664 35.84082031 30.72680664 33 33 C29.41054961 32.54074721 27.80414113 31.15166745 25.3203125 28.578125 C24.29744141 27.53398437 24.29744141 27.53398437 23.25390625 26.46875 C22.55136719 25.7365625 21.84882813 25.004375 21.125 24.25 C15.63988703 18.52217791 15.63988703 18.52217791 9.734375 13.2421875 C7.29562494 11.24241245 5.20737541 9.23502547 3.125 6.875 C2.52945313 6.21242187 1.93390625 5.54984375 1.3203125 4.8671875 C0 3 0 3 0 0 Z " fill="#ED3035" transform="translate(126,218)"/>
</svg>
